<svg xmlns="http://www.w3.org/2000/svg" width="23.856" height="23.851" viewBox="0 0 23.856 23.851">
  <path id="Icon_awesome-instagram" data-name="Icon awesome-instagram" d="M11.925,8.048a6.115,6.115,0,1,0,6.115,6.115A6.105,6.105,0,0,0,11.925,8.048Zm0,10.091A3.976,3.976,0,1,1,15.9,14.163a3.983,3.983,0,0,1-3.976,3.976ZM19.717,7.8A1.426,1.426,0,1,1,18.29,6.372,1.423,1.423,0,0,1,19.717,7.8Zm4.05,1.448a7.058,7.058,0,0,0-1.927-5,7.1,7.1,0,0,0-5-1.927c-1.969-.112-7.871-.112-9.84,0a7.1,7.1,0,0,0-5,1.921,7.082,7.082,0,0,0-1.927,5c-.112,1.969-.112,7.871,0,9.84a7.058,7.058,0,0,0,1.927,5A7.114,7.114,0,0,0,7,26c1.969.112,7.871.112,9.84,0a7.058,7.058,0,0,0,5-1.927,7.1,7.1,0,0,0,1.927-5c.112-1.969.112-7.866,0-9.835ZM21.223,21.193a4.025,4.025,0,0,1-2.267,2.267c-1.57.623-5.3.479-7.03.479s-5.466.138-7.03-.479a4.025,4.025,0,0,1-2.267-2.267c-.623-1.57-.479-5.3-.479-7.03S2.01,8.7,2.628,7.133A4.025,4.025,0,0,1,4.895,4.865c1.57-.623,5.3-.479,7.03-.479s5.466-.138,7.03.479a4.025,4.025,0,0,1,2.267,2.267c.623,1.57.479,5.3.479,7.03S21.846,19.629,21.223,21.193Z" transform="translate(0.005 -2.238)"/>
</svg>
