<svg xmlns="http://www.w3.org/2000/svg" width="23.673" height="27.249" viewBox="0 0 23.673 27.249">
  <path id="Icon_simple-tiktok" data-name="Icon simple-tiktok" d="M14.8.023C16.289,0,17.765.011,19.241,0a7.072,7.072,0,0,0,1.987,4.734,8.007,8.007,0,0,0,4.814,2.032v4.576a12.152,12.152,0,0,1-4.769-1.1,14.028,14.028,0,0,1-1.839-1.056c-.011,3.315.011,6.631-.023,9.934a8.672,8.672,0,0,1-1.533,4.473,8.459,8.459,0,0,1-6.71,3.645,8.279,8.279,0,0,1-4.632-1.169,8.562,8.562,0,0,1-4.144-6.483c-.023-.568-.034-1.135-.011-1.692a8.547,8.547,0,0,1,9.912-7.584c.023,1.68-.045,3.361-.045,5.041a3.9,3.9,0,0,0-4.973,2.407,4.5,4.5,0,0,0-.159,1.828,3.864,3.864,0,0,0,3.974,3.258,3.814,3.814,0,0,0,3.145-1.828,2.62,2.62,0,0,0,.465-1.2c.114-2.032.068-4.053.079-6.086.011-4.576-.011-9.14.023-13.7Z" transform="translate(-2.369)"/>
</svg>
