<svg xmlns="http://www.w3.org/2000/svg" width="47.547" height="47.547" viewBox="0 0 47.547 47.547">
  <path id="noun-verified-1133212" d="M93.079,45.741,89.7,47.254a3.4,3.4,0,0,1-4.141-1.109l-2.169-3a1.7,1.7,0,0,0-1.2-.694l-3.681-.378a3.4,3.4,0,0,1-3.031-3.031L75.1,35.36a1.7,1.7,0,0,0-.694-1.2l-3-2.169A3.4,3.4,0,0,1,70.3,27.849l1.513-3.377a1.7,1.7,0,0,0,0-1.388L70.3,19.706a3.4,3.4,0,0,1,1.109-4.141l3-2.169a1.7,1.7,0,0,0,.694-1.2l.378-3.681a3.4,3.4,0,0,1,3.031-3.031L82.19,5.1a1.7,1.7,0,0,0,1.2-.694l2.169-3A3.4,3.4,0,0,1,89.7.3l3.377,1.513a1.7,1.7,0,0,0,1.388,0L97.844.3a3.4,3.4,0,0,1,4.141,1.109l2.169,3a1.7,1.7,0,0,0,1.2.694l3.681.378a3.4,3.4,0,0,1,3.031,3.031l.378,3.681a1.7,1.7,0,0,0,.694,1.2l3,2.169a3.4,3.4,0,0,1,1.109,4.141l-1.512,3.377a1.7,1.7,0,0,0,0,1.388l1.512,3.377a3.4,3.4,0,0,1-1.109,4.141l-3,2.169a1.7,1.7,0,0,0-.694,1.2l-.378,3.681a3.4,3.4,0,0,1-3.031,3.031l-3.681.378a1.7,1.7,0,0,0-1.2.694l-2.169,3a3.4,3.4,0,0,1-4.141,1.109l-3.377-1.512A1.7,1.7,0,0,0,93.079,45.741ZM84.6,20.564l-2.882,2.882,9.675,9.675,14.852-14.852-2.882-2.882L91.39,27.357Z" transform="translate(-69.999 -0.004)" fill="#4c81ff" fill-rule="evenodd"/>
</svg>
